<svg xmlns="http://www.w3.org/2000/svg" viewBox="0 0 1365 247"><defs><style>.cls-1{fill:gray;}</style></defs><title>star_0</title><g id="Layer_2" data-name="Layer 2"><path class="cls-1" d="M131.56,14l24.33,74.87A7.43,7.43,0,0,0,163,94h78.73A7.43,7.43,0,0,1,246,107.43l-63.69,46.28a7.43,7.43,0,0,0-2.7,8.3L204,236.89a7.43,7.43,0,0,1-11.43,8.3l-63.69-46.28a7.43,7.43,0,0,0-8.73,0L56.44,245.19A7.43,7.43,0,0,1,45,236.89L69.34,162a7.43,7.43,0,0,0-2.7-8.3L3,107.43A7.43,7.43,0,0,1,7.32,94H86a7.43,7.43,0,0,0,7.06-5.13L117.44,14A7.43,7.43,0,0,1,131.56,14Z"/><path class="cls-1" d="M410.56,14l24.33,74.87A7.43,7.43,0,0,0,442,94h78.73A7.43,7.43,0,0,1,525,107.43l-63.69,46.28a7.43,7.43,0,0,0-2.7,8.3L483,236.89a7.43,7.43,0,0,1-11.43,8.3l-63.69-46.28a7.43,7.43,0,0,0-8.73,0l-63.69,46.28a7.43,7.43,0,0,1-11.43-8.3L348.34,162a7.43,7.43,0,0,0-2.7-8.3L282,107.43A7.43,7.43,0,0,1,286.32,94H365a7.43,7.43,0,0,0,7.06-5.13L396.44,14A7.43,7.43,0,0,1,410.56,14Z"/><path class="cls-1" d="M689.56,14l24.33,74.87A7.43,7.43,0,0,0,721,94h78.73A7.43,7.43,0,0,1,804,107.43l-63.69,46.28a7.43,7.43,0,0,0-2.7,8.3L762,236.89a7.43,7.43,0,0,1-11.43,8.3l-63.69-46.28a7.43,7.43,0,0,0-8.73,0l-63.69,46.28a7.43,7.43,0,0,1-11.43-8.3L627.34,162a7.43,7.43,0,0,0-2.7-8.3L561,107.43A7.43,7.43,0,0,1,565.32,94H644a7.43,7.43,0,0,0,7.06-5.13L675.44,14A7.43,7.43,0,0,1,689.56,14Z"/><path class="cls-1" d="M968.56,14l24.33,74.87A7.43,7.43,0,0,0,1000,94h78.73a7.43,7.43,0,0,1,4.36,13.43l-63.69,46.28a7.43,7.43,0,0,0-2.7,8.3L1041,236.89a7.43,7.43,0,0,1-11.43,8.3l-63.69-46.28a7.43,7.43,0,0,0-8.73,0l-63.69,46.28a7.43,7.43,0,0,1-11.43-8.3L906.34,162a7.43,7.43,0,0,0-2.7-8.3L840,107.43A7.43,7.43,0,0,1,844.32,94H923a7.43,7.43,0,0,0,7.06-5.13L954.44,14A7.43,7.43,0,0,1,968.56,14Z"/><path class="cls-1" d="M1247.56,14l24.33,74.87A7.43,7.43,0,0,0,1279,94h78.73a7.43,7.43,0,0,1,4.36,13.43l-63.69,46.28a7.43,7.43,0,0,0-2.7,8.3L1320,236.89a7.43,7.43,0,0,1-11.43,8.3l-63.69-46.28a7.43,7.43,0,0,0-8.73,0l-63.69,46.28a7.43,7.43,0,0,1-11.43-8.3L1185.34,162a7.43,7.43,0,0,0-2.7-8.3L1119,107.43A7.43,7.43,0,0,1,1123.32,94H1202a7.43,7.43,0,0,0,7.06-5.13L1233.44,14A7.43,7.43,0,0,1,1247.56,14Z"/></g></svg>