<svg xmlns="http://www.w3.org/2000/svg" viewBox="0 0 1365 247"><defs><style>.cls-1{fill:#ffcf56;}.cls-2{fill:gray;}</style></defs><title>star_3</title><g id="Layer_2" data-name="Layer 2"><path class="cls-1" d="M196.9,244.64a5.3,5.3,0,0,1-3.16-1.07L130,197.29a9.43,9.43,0,0,0-11.08,0L55.27,243.57a5.3,5.3,0,0,1-3.16,1.07,5.64,5.64,0,0,1-4.47-2.32,5.24,5.24,0,0,1-.71-4.81l24.33-74.87a9.4,9.4,0,0,0-3.42-10.54L4.13,105.82A5.43,5.43,0,0,1,7.32,96H86a9.4,9.4,0,0,0,9-6.51l24.33-74.87a5.43,5.43,0,0,1,10.32,0L154,89.49A9.4,9.4,0,0,0,163,96h78.73a5.43,5.43,0,0,1,3.19,9.82l-63.69,46.27a9.4,9.4,0,0,0-3.42,10.54l24.33,74.88a5.24,5.24,0,0,1-.71,4.81A5.64,5.64,0,0,1,196.9,244.64Z"/><path class="cls-2" d="M124.5,12.86a3.32,3.32,0,0,1,3.26,2.37l24.33,74.87A11.4,11.4,0,0,0,163,98h78.73a3.43,3.43,0,0,1,2,6.2L180,150.47a11.4,11.4,0,0,0-4.15,12.77l24.33,74.87a3.23,3.23,0,0,1-.43,3,3.61,3.61,0,0,1-2.85,1.5,3.34,3.34,0,0,1-2-.69l-63.69-46.28a11.43,11.43,0,0,0-13.43,0L54.09,242a3.34,3.34,0,0,1-2,.69,3.61,3.61,0,0,1-2.85-1.5,3.23,3.23,0,0,1-.43-3l24.33-74.87A11.4,11.4,0,0,0,69,150.47L5.31,104.2a3.43,3.43,0,0,1,2-6.2H86a11.4,11.4,0,0,0,10.87-7.89l24.33-74.87a3.32,3.32,0,0,1,3.26-2.37m0-4A7.29,7.29,0,0,0,117.44,14L93.11,88.87A7.43,7.43,0,0,1,86,94H7.32A7.43,7.43,0,0,0,3,107.43l63.69,46.28a7.43,7.43,0,0,1,2.7,8.3L45,236.89a7.45,7.45,0,0,0,7.09,9.75,7.32,7.32,0,0,0,4.34-1.45l63.69-46.28a7.43,7.43,0,0,1,8.73,0l63.69,46.28a7.32,7.32,0,0,0,4.34,1.45,7.45,7.45,0,0,0,7.09-9.75L179.66,162a7.43,7.43,0,0,1,2.7-8.3L246,107.43A7.43,7.43,0,0,0,241.68,94H163a7.43,7.43,0,0,1-7.06-5.13L131.56,14a7.29,7.29,0,0,0-7.06-5.13Z"/><path class="cls-1" d="M475.9,244.64a5.31,5.31,0,0,1-3.16-1.07L409,197.29a9.43,9.43,0,0,0-11.08,0l-63.69,46.28a5.3,5.3,0,0,1-3.16,1.07,5.64,5.64,0,0,1-4.47-2.32,5.23,5.23,0,0,1-.71-4.81l24.33-74.87a9.41,9.41,0,0,0-3.42-10.54l-63.69-46.27A5.43,5.43,0,0,1,286.32,96H365a9.4,9.4,0,0,0,9-6.51l24.33-74.87a5.43,5.43,0,0,1,10.32,0L433,89.49A9.4,9.4,0,0,0,442,96h78.73a5.43,5.43,0,0,1,3.19,9.82l-63.69,46.27a9.41,9.41,0,0,0-3.42,10.54l24.33,74.88a5.23,5.23,0,0,1-.71,4.81A5.64,5.64,0,0,1,475.9,244.64Z"/><path class="cls-2" d="M403.5,12.86a3.32,3.32,0,0,1,3.26,2.37L431.09,90.1A11.4,11.4,0,0,0,442,98h78.73a3.43,3.43,0,0,1,2,6.2L459,150.47a11.4,11.4,0,0,0-4.15,12.77l24.33,74.87a3.23,3.23,0,0,1-.43,3,3.61,3.61,0,0,1-2.85,1.5,3.35,3.35,0,0,1-2-.69l-63.69-46.28a11.43,11.43,0,0,0-13.43,0L333.09,242a3.35,3.35,0,0,1-2,.69,3.61,3.61,0,0,1-2.85-1.5,3.23,3.23,0,0,1-.43-3l24.33-74.87A11.4,11.4,0,0,0,348,150.47L284.31,104.2a3.43,3.43,0,0,1,2-6.2H365a11.4,11.4,0,0,0,10.87-7.89l24.33-74.87a3.32,3.32,0,0,1,3.26-2.37m0-4A7.29,7.29,0,0,0,396.44,14L372.11,88.87A7.43,7.43,0,0,1,365,94H286.32A7.43,7.43,0,0,0,282,107.43l63.69,46.28a7.43,7.43,0,0,1,2.7,8.3L324,236.89a7.45,7.45,0,0,0,7.09,9.75,7.32,7.32,0,0,0,4.34-1.45l63.69-46.28a7.43,7.43,0,0,1,8.73,0l63.69,46.28a7.32,7.32,0,0,0,4.34,1.45,7.45,7.45,0,0,0,7.09-9.75L458.66,162a7.43,7.43,0,0,1,2.7-8.3L525,107.43A7.43,7.43,0,0,0,520.68,94H442a7.43,7.43,0,0,1-7.06-5.13L410.56,14a7.29,7.29,0,0,0-7.06-5.13Z"/><path class="cls-1" d="M754.9,244.64a5.31,5.31,0,0,1-3.16-1.07L688,197.29a9.43,9.43,0,0,0-11.08,0l-63.69,46.28a5.3,5.3,0,0,1-3.16,1.07,5.64,5.64,0,0,1-4.47-2.32,5.23,5.23,0,0,1-.71-4.81l24.33-74.87a9.41,9.41,0,0,0-3.42-10.54l-63.69-46.27A5.43,5.43,0,0,1,565.32,96H644a9.4,9.4,0,0,0,9-6.51l24.33-74.87a5.43,5.43,0,0,1,10.32,0L712,89.49A9.4,9.4,0,0,0,721,96h78.73a5.43,5.43,0,0,1,3.19,9.82l-63.69,46.27a9.41,9.41,0,0,0-3.42,10.54l24.33,74.88a5.23,5.23,0,0,1-.71,4.81A5.64,5.64,0,0,1,754.9,244.64Z"/><path class="cls-2" d="M682.5,12.86a3.32,3.32,0,0,1,3.26,2.37L710.09,90.1A11.4,11.4,0,0,0,721,98h78.73a3.43,3.43,0,0,1,2,6.2L738,150.47a11.4,11.4,0,0,0-4.15,12.77l24.33,74.87a3.23,3.23,0,0,1-.43,3,3.61,3.61,0,0,1-2.85,1.5,3.35,3.35,0,0,1-2-.69l-63.69-46.28a11.43,11.43,0,0,0-13.43,0L612.09,242a3.35,3.35,0,0,1-2,.69,3.61,3.61,0,0,1-2.85-1.5,3.23,3.23,0,0,1-.43-3l24.33-74.87A11.4,11.4,0,0,0,627,150.47L563.31,104.2a3.43,3.43,0,0,1,2-6.2H644a11.4,11.4,0,0,0,10.87-7.89l24.33-74.87a3.32,3.32,0,0,1,3.26-2.37m0-4A7.29,7.29,0,0,0,675.44,14L651.11,88.87A7.43,7.43,0,0,1,644,94H565.32A7.43,7.43,0,0,0,561,107.43l63.69,46.28a7.43,7.43,0,0,1,2.7,8.3L603,236.89a7.45,7.45,0,0,0,7.09,9.75,7.32,7.32,0,0,0,4.34-1.45l63.69-46.28a7.43,7.43,0,0,1,8.73,0l63.69,46.28a7.32,7.32,0,0,0,4.34,1.45,7.45,7.45,0,0,0,7.09-9.75L737.66,162a7.43,7.43,0,0,1,2.7-8.3L804,107.43A7.43,7.43,0,0,0,799.68,94H721a7.43,7.43,0,0,1-7.06-5.13L689.56,14a7.29,7.29,0,0,0-7.06-5.13Z"/><path class="cls-2" d="M968.56,14l24.33,74.87A7.43,7.43,0,0,0,1000,94h78.73a7.43,7.43,0,0,1,4.36,13.43l-63.69,46.28a7.43,7.43,0,0,0-2.7,8.3L1041,236.89a7.43,7.43,0,0,1-11.43,8.3l-63.69-46.28a7.43,7.43,0,0,0-8.73,0l-63.69,46.28a7.43,7.43,0,0,1-11.43-8.3L906.34,162a7.43,7.43,0,0,0-2.7-8.3L840,107.43A7.43,7.43,0,0,1,844.32,94H923a7.43,7.43,0,0,0,7.06-5.13L954.44,14A7.43,7.43,0,0,1,968.56,14Z"/><path class="cls-2" d="M1247.56,14l24.33,74.87A7.43,7.43,0,0,0,1279,94h78.73a7.43,7.43,0,0,1,4.36,13.43l-63.69,46.28a7.43,7.43,0,0,0-2.7,8.3L1320,236.89a7.43,7.43,0,0,1-11.43,8.3l-63.69-46.28a7.43,7.43,0,0,0-8.73,0l-63.69,46.28a7.43,7.43,0,0,1-11.43-8.3L1185.34,162a7.43,7.43,0,0,0-2.7-8.3L1119,107.43A7.43,7.43,0,0,1,1123.32,94H1202a7.43,7.43,0,0,0,7.06-5.13L1233.44,14A7.43,7.43,0,0,1,1247.56,14Z"/></g></svg>